<?xml version="1.0" encoding="UTF-8"?>
<svg id="Layer_1" data-name="Layer 1" xmlns="http://www.w3.org/2000/svg" viewBox="0 0 196.14 66.22">
  <defs>
    <style>
      .cls-1 {
        fill: #09c;
      }

      .cls-2 {
        fill: #f5c400;
      }

      .cls-3 {
        fill: #d81b60;
      }
    </style>
  </defs>
  <g>
    <path class="cls-2" d="M41.58,58.65c-1.3,8.81-14.05,10.06-16.95,1.52-1.67-4.6.91-10.05,5.69-11.35,1.43-.44,2.98-.5,4.51-.6,3.58-.1,7.11-1.45,9.6-4.05,1.39-1.42,2.46-3.15,3.05-5.05.95-2.86.41-6.26,1.43-9.07,1.45-4.63,7.03-7.04,11.47-5.26,7.21,2.68,7.52,13.15.48,16.21-2.76,1.25-6.19.64-9.13,1.5-4.96,1.34-8.95,5.62-9.63,10.79-.26,1.74-.18,3.51-.51,5.25l-.02.11Z"/>
    <path class="cls-3" d="M17.46,58.64c-1.3,8.81-14.05,10.06-16.95,1.52-1.67-4.6.91-10.05,5.69-11.35,1.43-.44,2.98-.5,4.51-.6,3.58-.1,7.11-1.45,9.6-4.05,1.39-1.42,2.46-3.15,3.05-5.05.95-2.86.41-6.26,1.43-9.07,1.45-4.63,7.03-7.04,11.47-5.26,7.21,2.68,7.52,13.15.48,16.21-2.76,1.25-6.19.64-9.13,1.5-4.96,1.34-8.95,5.62-9.63,10.79-.26,1.74-.18,3.51-.51,5.25l-.02.11Z"/>
    <path class="cls-1" d="M17.62,34.46c-1.3,8.81-14.05,10.06-16.95,1.52-1.67-4.6.91-10.05,5.69-11.35,1.43-.44,2.98-.5,4.51-.6,3.58-.1,7.11-1.45,9.6-4.05,1.39-1.42,2.46-3.15,3.05-5.05.95-2.86.41-6.26,1.43-9.07,1.45-4.63,7.03-7.04,11.47-5.26,7.21,2.68,7.52,13.15.48,16.21-2.76,1.25-6.19.64-9.13,1.5-4.96,1.34-8.95,5.62-9.63,10.79-.26,1.74-.18,3.51-.51,5.25l-.02.11Z"/>
    <circle cx="57.06" cy="9.19" r="9.08"/>
    <circle cx="9.17" cy="9.19" r="9.02"/>
    <circle cx="57.06" cy="57.14" r="9.08"/>
  </g>
  <g>
    <path d="M83.65,60.81c-.07.81-.38,4.95-4.84,4.95s-5.09-4.01-5.09-8.33c0-5.2,1.53-8.26,5.26-8.26,4.26,0,4.59,3.65,4.65,4.94h-2.84c-.04-.55-.08-2.5-1.85-2.5s-2.25,2.21-2.25,5.89c0,3.03.3,5.87,2.17,5.87,1.71,0,1.85-1.94,1.92-2.55h2.87Z"/>
    <path d="M95.54,57.33c0,5.87-1.6,8.43-5.3,8.43-3.46,0-5.14-2.52-5.14-8.46s1.96-8.13,5.27-8.13c3.5,0,5.17,2.59,5.17,8.16ZM88.04,57.27c0,3.81.58,6.08,2.26,6.08,1.77,0,2.28-2.1,2.28-6.07,0-3.73-.54-5.68-2.28-5.68s-2.26,2.09-2.26,5.67Z"/>
    <path d="M107.66,59.51c0-2.74.05-5.87.09-7.7h-.07c-.55,3.05-1.44,8.47-2.5,13.67h-2.6c-.78-4.84-1.7-10.61-2.22-13.71h-.09c.09,1.88.17,5.24.17,8.02v5.7h-2.63v-16.06h4.3c.84,4.44,1.58,8.92,1.9,11.27h.02c.33-2.18,1.33-7.02,2.17-11.27h4.2v16.06h-2.76v-5.97Z"/>
    <path d="M113.19,49.43h4.83c2.65,0,4.64,1.59,4.64,4.78s-1.8,4.75-4.86,4.75h-1.73v6.53h-2.88v-16.06ZM116.07,56.65h1.4c1.6,0,2.3-.79,2.3-2.49,0-1.61-.83-2.41-2.15-2.41h-1.56v4.89Z"/>
    <path d="M127.35,49.43v11.05c0,1.32.33,2.88,2.1,2.88s2.08-1.32,2.08-2.86v-11.07h2.88v11.11c0,2.88-1.13,5.23-5.01,5.23s-4.93-2.2-4.93-5.23v-11.11h2.88Z"/>
    <path d="M139.23,51.94h-3.43v-2.52h9.74v2.52h-3.43v13.54h-2.88v-13.54Z"/>
    <path d="M148.23,61.44l-.8,4.04h-2.88s3.72-16.06,3.72-16.06h3.73l3.76,16.06h-3.02l-.8-4.04h-3.72ZM151.43,58.95c-.6-3.07-1.08-5.32-1.33-6.85h-.07c-.2,1.48-.7,3.89-1.3,6.85h2.7Z"/>
    <path d="M166.53,60.81c-.07.81-.38,4.95-4.84,4.95s-5.09-4.01-5.09-8.33c0-5.2,1.53-8.26,5.26-8.26,4.26,0,4.59,3.65,4.65,4.94h-2.84c-.04-.55-.08-2.5-1.85-2.5s-2.25,2.21-2.25,5.89c0,3.03.3,5.87,2.17,5.87,1.71,0,1.85-1.94,1.92-2.55h2.87Z"/>
    <path d="M171.21,49.43v16.06h-2.88v-16.06h2.88Z"/>
    <path d="M183.93,57.33c0,5.87-1.6,8.43-5.3,8.43-3.46,0-5.14-2.52-5.14-8.46s1.96-8.13,5.27-8.13c3.5,0,5.17,2.59,5.17,8.16ZM176.43,57.27c0,3.81.58,6.08,2.26,6.08,1.77,0,2.28-2.1,2.28-6.07,0-3.73-.54-5.68-2.28-5.68s-2.26,2.09-2.26,5.67ZM183.12,45.27l-3.34,2.86h-2.71l2.63-2.86h3.42Z"/>
    <path d="M186.18,65.49v-16.06h3.27c3.32,8.88,3.96,10.57,4.15,11.36h.02c-.14-1.93-.14-4.29-.14-6.93v-4.43h2.57v16.06h-3.13c-3.43-9.46-4.04-11.17-4.25-11.91h-.02c.12,1.98.12,4.34.12,7.22v4.68h-2.59Z"/>
  </g>
  <path d="M81.09,3.1v31.29h-7.42V3.1h7.42Z"/>
  <path d="M84.06,16.21c0-3.38-.05-6.53-.09-7.14h7.19c.14.8.19,1.41.23,1.97.7-.94,2.16-2.35,4.84-2.35,3.81,0,5.03,2.58,5.03,6.25v19.45h-7.47v-17.67c0-.8-.09-1.83-1.03-1.83-.85,0-1.22.52-1.22,2.02v17.48h-7.47v-18.18Z"/>
  <path d="M102.66,9.06h2.3V3.85h7.33v5.22h2.54v6.67h-2.54v10.95c0,1.13.19,1.5,1.46,1.5.14,0,.47,0,.75-.05v6.01c-1.41.42-3.38.47-4.23.47-4.42,0-5.5-1.88-5.5-6.11v-12.78h-2.11v-6.67Z"/>
  <path d="M124.04,23.44v3.85c0,1.32.28,1.83,1.03,1.83.8,0,1.17-.42,1.17-1.97v-1.41h7.19v.8c0,4.84-1.93,8.27-8.55,8.27-6.06,0-8.41-2.91-8.41-8.27v-9.63c0-5.59,3.52-8.22,8.55-8.22s8.46,2.35,8.46,8.22v6.53h-9.44ZM126.2,18.79v-2.58c0-1.27-.14-2.02-1.08-2.02-.75,0-1.08.7-1.08,2.02v2.58h2.16Z"/>
  <path d="M152.85,31.57c0,6.63-.66,10.95-9.02,10.95-5.4,0-8.08-2.63-8.08-6.95v-.19h7.47v.09c0,.7.19,1.46,1.08,1.46,1.13,0,1.27-.8,1.27-2.96v-3.2c-.89,2.11-2.68,2.82-4.46,2.82-4.13,0-5.45-3.1-5.45-7.47v-10.2c0-3.9,1.22-7.24,5.54-7.24,2.11,0,3.71.85,4.32,2.49.05-.8.14-1.74.23-2.11h7.19c-.05,1.6-.09,4.65-.09,8.36v14.14ZM143.12,16.68v8.79c0,1.36.33,1.83,1.03,1.83s1.22-.52,1.22-1.88v-8.83c0-.75-.14-1.64-1.08-1.64-.8,0-1.17.56-1.17,1.74Z"/>
  <path d="M155.48,17.71c0-4.51-.05-7.33-.09-8.65h7.19c.09.66.23,2.21.23,3.15.7-1.97,2.35-3.48,4.65-3.52v8.69c-3.24,0-4.51.75-4.51,3.15v13.86h-7.47v-16.68Z"/>
  <path d="M185.69,27.91c0,3.52.09,5.22.23,6.48h-7.14c-.23-.38-.38-1.5-.42-1.97-1.13,1.79-2.82,2.3-4.56,2.3-3.9,0-5.4-3.48-5.4-7.47v-.52c0-6.67,4.42-8.22,9.35-8.22h.38v-2.82c0-1.36-.33-1.69-.99-1.69s-.99.42-.99,1.93v1.03h-7v-.66c0-5.64,3.05-7.61,8.36-7.61,4.98,0,8.18,1.83,8.18,6.67v12.55ZM178.12,23.25h-.33c-1.22,0-1.93.85-1.93,2.82v.19c0,1.93.47,2.44,1.17,2.44.8,0,1.08-.7,1.08-1.97v-3.48Z"/>
  <path d="M188.67,34.39V1.69h7.47v32.7h-7.47Z"/>
  <rect x="73.58" y="37.18" width="59.94" height="5.52"/>
  <rect x="155.56" y="37.18" width="40.45" height="5.52"/>
</svg>